<svg id="Layer_2" data-name="Layer 2" xmlns="http://www.w3.org/2000/svg" viewBox="0 0 92.6 174.75"><defs><style>.cls-1,.cls-2,.cls-3,.cls-4{fill:none;}.cls-1{stroke:#ff0;}.cls-1,.cls-2,.cls-4{stroke-width:6px;}.cls-2{stroke:#ef00aa;}.cls-3{stroke:#1d1d1b;stroke-width:4px;}.cls-4{stroke:#00aaef;}</style></defs><title>kodfit_logo_1</title><path class="cls-1" d="M58.43,21.79,27.53,45.51q5.88,18,11.75,36l32.93-14.3,16.09-23Z" transform="translate(-12.5 -5.86)"/><path class="cls-2" d="M58.41,34.33l-13,11.91q1.77,10.13,3.53,20.25l30.43,14L75.59,45.72Z" transform="translate(-12.5 -5.86)"/><path class="cls-3" d="M73.58,99A55.64,55.64,0,0,0,84,93S90.85,99.4,75,109.11" transform="translate(-12.5 -5.86)"/><path class="cls-3" d="M63.28,116c-6.25,3.66-7.23,4.85-7.05,5.28.34.77,4.24-1.14,7.56.59A8.65,8.65,0,0,1,67.62,127a30.93,30.93,0,0,1,.76,14.3c-.39,2.1-1.16,6.27-2.55,6.38-1.15.09-3-2.61-6.13-16.09-34.47,5.11-14-17.61-14-17.61C22.17,103,32.13,92.77,32.13,92.77c9.31,10,20,11.52,29.33,10" transform="translate(-12.5 -5.86)"/><path class="cls-3" d="M68.89,123.91" transform="translate(-12.5 -5.86)"/><ellipse class="cls-3" cx="55.11" cy="100.57" rx="7.4" ry="11.11"/><path class="cls-3" d="M40.81,129.53a20,20,0,0,1-6.13,4.85c-3.67,1.85-5.92,1.45-8.94,3.83-.43.35-4,3.18-3.31,4.85.78,2,7.36,1.63,12,.26,2.81-.84,8.8-3.19,14.29-10.72" transform="translate(-12.5 -5.86)"/><polygon class="cls-4" points="46.43 3.7 3.54 34.46 20.12 84.63 72.72 84.63 89.07 34.46 46.43 3.7"/><path d="M18.19,159.6h2.62V170h.09l8.57-10.35h3L26,167.46l7.46,12.77H30.51l-6.16-10.72-3.54,4.2v6.52H18.19Z" transform="translate(-12.5 -5.86)"/><path d="M34.79,172.61c0-5.1,3.34-8,7.08-8s7.08,2.93,7.08,8-3.33,8-7.08,8S34.79,177.67,34.79,172.61Zm11.49,0c0-3.5-1.78-5.88-4.41-5.88s-4.41,2.38-4.41,5.88,1.79,5.85,4.41,5.85S46.28,176.11,46.28,172.61Z" transform="translate(-12.5 -5.86)"/><path d="M51.88,172.61c0-5,3.12-8,6.61-8a6.23,6.23,0,0,1,4.28,1.77l-.11-2.62v-5.89h2.59v22.39H63.11l-.22-1.8h-.08a6.77,6.77,0,0,1-4.64,2.18C54.35,180.61,51.88,177.71,51.88,172.61Zm10.78,3.74v-8a5.39,5.39,0,0,0-3.73-1.59c-2.44,0-4.38,2.36-4.38,5.84,0,3.66,1.51,5.84,4.19,5.84A5.26,5.26,0,0,0,62.66,176.35Z" transform="translate(-12.5 -5.86)"/><path d="M68.76,165.1,71,165h5.71v2.11h-7.9Zm2.08-2.56c0-3.1,1.41-5.08,4.47-5.08a6.79,6.79,0,0,1,2.54.53l-.55,2a4.12,4.12,0,0,0-1.73-.39c-1.44,0-2.15,1-2.15,3v17.68H70.84Z" transform="translate(-12.5 -5.86)"/><path d="M79.59,165h2.58v15.28H79.59Zm2.54-2.6H79.58V159.8h2.55Z" transform="translate(-12.5 -5.86)"/><path d="M87.78,175.51v-8.45H85.5v-2l2.39-.15.31-4.28h2.16V165H94.5v2.11H90.36v8.49c0,1.87.6,2.95,2.36,2.95a4.92,4.92,0,0,0,1.74-.41L95,180a8.91,8.91,0,0,1-2.83.57C88.88,180.61,87.78,178.55,87.78,175.51Z" transform="translate(-12.5 -5.86)"/></svg>