<svg id="Layer_2" data-name="Layer 2" xmlns="http://www.w3.org/2000/svg" viewBox="0 0 188.53 72.28"><defs><style>.cls-1{fill:#ff0;}.cls-2{fill:#00aaef;}.cls-3{fill:#ef00aa;}</style></defs><title>kodfit_logo_small</title><path d="M64.36,60.2c0-11,7.21-17.39,15.31-17.39S95,49.17,95,60.2,87.77,77.5,79.67,77.5,64.36,71.14,64.36,60.2Zm24.85,0c0-7.58-3.85-12.73-9.54-12.73s-9.54,5.15-9.54,12.73S74,72.84,79.67,72.84,89.21,67.77,89.21,60.2Z" transform="translate(-3.81 -5.21)"/><path d="M100.77,60.2c0-10.72,6.76-17.39,14.3-17.39,3.84,0,6.36,1.45,9.26,3.83L124.09,41V28.24h5.6V76.68h-4.62l-.48-3.9h-.18c-2.57,2.57-6.09,4.72-10,4.72C106.12,77.5,100.77,71.21,100.77,60.2Zm23.32,8.08V51c-2.82-2.52-5.36-3.44-8.06-3.44-5.28,0-9.48,5.1-9.48,12.63,0,7.92,3.27,12.64,9.07,12.64C118.67,72.79,121.32,71.3,124.09,68.28Z" transform="translate(-3.81 -5.21)"/><path d="M136.75,44l4.74-.32h12.34v4.56H136.75Zm4.49-5.54c0-6.72,3.06-11,9.68-11a14.64,14.64,0,0,1,5.49,1.14l-1.18,4.27a9.07,9.07,0,0,0-3.74-.85c-3.12,0-4.66,2.18-4.66,6.45V76.68h-5.59Z" transform="translate(-3.81 -5.21)"/><path d="M159.63,43.63h5.59V76.68h-5.59Z" transform="translate(-3.81 -5.21)"/><path d="M176.79,66.46V48.19h-4.91V44l5.16-.32.68-9.27h4.67v9.27h9v4.56h-9V66.56c0,4,1.3,6.38,5.11,6.38a10.88,10.88,0,0,0,3.76-.89l1.08,4.22a19.89,19.89,0,0,1-6.13,1.23C179.18,77.5,176.79,73,176.79,66.46Z" transform="translate(-3.81 -5.21)"/><rect class="cls-1" x="155.66" y="26.96" width="5.94" height="5.94"/><polygon class="cls-2" points="45.28 0 35.4 0.68 0 72.17 9.87 71.49 45.28 0"/><polygon class="cls-3" points="59.57 41.53 61.96 36.94 54.64 31.83 31.66 33.02 26.72 41.87 36.26 65.7 43.74 71.32 46.64 66.89 36.94 42.55 59.57 41.53"/></svg>